<svg width="199" height="27" viewBox="0 0 199 27" fill="none" xmlns="http://www.w3.org/2000/svg">
<path d="M-0.000460848 25.7868L8.22709 0.854805H24.8959L33.0522 25.7868H21.6904L20.5862 21.9045H12.1806L11.0408 25.7868H-0.000460848ZM13.7834 16.3482H18.9835L16.3834 7.33712L13.7834 16.3482ZM34.9313 25.7868V0.819188H46.2219V25.7868H34.9313ZM49.992 25.7868V0.854805H74.5678V8.69057H61.2827V11.255H73.9623V17.488H61.2827V25.7868H49.992ZM93.781 26.6416C82.989 26.6416 76.4711 20.5511 76.4711 13.1427C76.4711 5.44941 82.989 -5.09191e-06 93.8166 -5.09191e-06C104.573 -5.09191e-06 111.127 5.44941 111.127 13.1427C111.127 20.5867 104.573 26.6416 93.781 26.6416ZM93.781 18.2716C96.9153 18.2716 98.9455 16.2058 98.9455 13.2139C98.9455 10.2577 96.9153 8.37001 93.781 8.37001C90.6467 8.37001 88.6165 10.2577 88.6165 13.2139C88.6165 16.2058 90.6467 18.2716 93.781 18.2716ZM113.818 25.7868V0.854805H134.012C140.245 0.854805 144.163 4.16719 144.163 9.43853C144.163 13.8194 141.314 16.5263 138.037 17.1318L144.27 25.7868H131.377L125.108 15.8852V25.7868H113.818ZM125.108 13.2139H128.99C131.234 13.2139 132.481 12.2523 132.481 10.507C132.481 8.86865 131.27 7.97823 129.133 7.97823H125.108V13.2139ZM152.82 26.6416C148.973 26.6416 146.159 25.6087 144.984 24.6114V17.0962C145.696 17.6305 146.872 18.3428 148.795 18.3428C151.466 18.3428 153.176 16.9181 153.176 14.0687V0.854805H164.466V16.2058C164.466 23.5073 159.694 26.6416 152.82 26.6416ZM168.008 25.7868V0.854805H188.203C194.436 0.854805 198.354 4.16719 198.354 9.43853C198.354 13.8194 195.505 16.5263 192.228 17.1318L198.461 25.7868H185.568L179.299 15.8852V25.7868H168.008ZM179.299 13.2139H183.181C185.425 13.2139 186.672 12.2523 186.672 10.507C186.672 8.86865 185.461 7.97823 183.324 7.97823H179.299V13.2139Z" fill="#FA1F00"/>
</svg>
