<svg width="199" height="27" viewBox="0 0 199 27" fill="none" xmlns="http://www.w3.org/2000/svg">
<path d="M-0.000460848 25.7867L8.22709 0.854774H24.8959L33.0522 25.7867H21.6904L20.5862 21.9045H12.1806L11.0408 25.7867H-0.000460848ZM13.7834 16.3482H18.9835L16.3834 7.33709L13.7834 16.3482ZM34.9313 25.7867V0.819158H46.2219V25.7867H34.9313ZM49.992 25.7867V0.854774H74.5678V8.69054H61.2827V11.255H73.9623V17.488H61.2827V25.7867H49.992ZM93.781 26.6416C82.989 26.6416 76.4711 20.551 76.4711 13.1427C76.4711 5.44938 82.989 -3.56095e-05 93.8166 -3.56095e-05C104.573 -3.56095e-05 111.127 5.44938 111.127 13.1427C111.127 20.5866 104.573 26.6416 93.781 26.6416ZM93.781 18.2715C96.9153 18.2715 98.9455 16.2057 98.9455 13.2139C98.9455 10.2577 96.9153 8.36998 93.781 8.36998C90.6467 8.36998 88.6165 10.2577 88.6165 13.2139C88.6165 16.2057 90.6467 18.2715 93.781 18.2715ZM113.818 25.7867V0.854774H134.012C140.245 0.854774 144.163 4.16716 144.163 9.4385C144.163 13.8194 141.314 16.5263 138.037 17.1318L144.27 25.7867H131.377L125.108 15.8852V25.7867H113.818ZM125.108 13.2139H128.99C131.234 13.2139 132.481 12.2522 132.481 10.507C132.481 8.86862 131.27 7.9782 129.133 7.9782H125.108V13.2139ZM152.82 26.6416C148.973 26.6416 146.159 25.6087 144.984 24.6114V17.0962C145.696 17.6304 146.872 18.3428 148.795 18.3428C151.466 18.3428 153.176 16.9181 153.176 14.0687V0.854774H164.466V16.2057C164.466 23.5072 159.694 26.6416 152.82 26.6416ZM168.008 25.7867V0.854774H188.203C194.436 0.854774 198.354 4.16716 198.354 9.4385C198.354 13.8194 195.505 16.5263 192.228 17.1318L198.461 25.7867H185.568L179.299 15.8852V25.7867H168.008ZM179.299 13.2139H183.181C185.425 13.2139 186.672 12.2522 186.672 10.507C186.672 8.86862 185.461 7.9782 183.324 7.9782H179.299V13.2139Z" fill="white"/>
</svg>
